<?xml version="1.0" encoding="UTF-8"?>
<svg xmlns="http://www.w3.org/2000/svg" xmlns:xlink="http://www.w3.org/1999/xlink" width="2000px" height="2000px" viewBox="0 0 2000 2000" version="1.1">
<g id="surface1">
<path style=" stroke:none;fill-rule:evenodd;fill:rgb(0.392157%,70.980394%,90.196079%);fill-opacity:1;" d="M 1299.167969 688.46875 L 1317.902344 713.140625 C 1322.820312 719.652344 1321.59375 728.988281 1315.082031 733.90625 L 1295.183594 749.03125 C 1298.804688 758.652344 1301.117188 768.929688 1302.058594 779.417969 L 1324.703125 782.53125 C 1332.804688 783.617188 1338.449219 791.140625 1337.363281 799.246094 L 1333.167969 829.996094 C 1332.082031 838.097656 1324.558594 843.816406 1316.457031 842.65625 L 1291.714844 839.257812 C 1287.300781 848.878906 1281.660156 857.707031 1275.003906 865.59375 L 1288.894531 883.828125 C 1293.8125 890.339844 1292.511719 899.671875 1286 904.59375 L 1261.328125 923.332031 C 1254.820312 928.253906 1245.488281 926.953125 1240.570312 920.511719 L 1225.449219 900.613281 C 1215.753906 904.230469 1205.554688 906.546875 1194.992188 907.488281 L 1191.882812 930.136719 C 1190.796875 938.238281 1183.273438 943.882812 1175.171875 942.796875 L 1144.425781 938.601562 C 1136.320312 937.515625 1130.679688 929.992188 1131.765625 921.886719 L 1135.167969 897.140625 C 1125.617188 892.726562 1116.71875 887.082031 1108.832031 880.5 L 1090.605469 894.320312 C 1084.09375 899.238281 1074.757812 898.007812 1069.839844 891.496094 L 1051.105469 866.824219 C 1046.183594 860.3125 1047.414062 850.980469 1053.925781 846.058594 L 1073.820312 830.9375 C 1070.203125 821.242188 1067.890625 811.039062 1066.949219 800.546875 L 1044.304688 797.4375 C 1036.203125 796.351562 1030.484375 788.824219 1031.644531 780.722656 L 1035.839844 749.972656 C 1036.996094 741.867188 1044.449219 736.222656 1052.550781 737.308594 L 1077.292969 740.710938 C 1081.703125 731.160156 1087.347656 722.257812 1093.929688 714.371094 L 1080.113281 696.136719 C 1075.191406 689.699219 1076.425781 680.363281 1082.933594 675.445312 L 1107.605469 656.707031 C 1114.113281 651.785156 1123.449219 653.015625 1128.367188 659.527344 L 1143.484375 679.425781 C 1153.105469 675.808594 1163.378906 673.492188 1173.871094 672.550781 L 1176.980469 649.902344 C 1178.066406 641.800781 1185.589844 636.082031 1193.691406 637.167969 L 1224.4375 641.367188 C 1232.535156 642.453125 1238.25 649.976562 1237.097656 658.078125 L 1233.695312 682.824219 C 1243.320312 687.238281 1252.144531 692.882812 1260.101562 699.539062 L 1278.328125 685.71875 C 1284.839844 680.726562 1294.175781 681.957031 1299.167969 688.46875 Z M 770.199219 1122.671875 L 770.199219 1003.285156 L 831.6875 1003.285156 C 843.121094 1003.285156 851.800781 1004.226562 857.808594 1006.253906 C 863.8125 1008.207031 868.730469 1011.820312 872.347656 1017.105469 C 876.035156 1022.460938 877.917969 1028.898438 877.917969 1036.496094 C 877.917969 1043.082031 876.46875 1048.871094 873.648438 1053.644531 C 870.824219 1058.492188 866.921875 1062.398438 862.003906 1065.367188 C 858.894531 1067.25 854.550781 1068.839844 849.050781 1070.070312 C 853.464844 1071.589844 856.648438 1072.964844 858.601562 1074.480469 C 859.976562 1075.496094 861.929688 1077.597656 864.464844 1080.777344 C 866.992188 1083.964844 868.730469 1086.492188 869.597656 1088.230469 L 887.535156 1122.746094 L 845.871094 1122.746094 L 826.191406 1086.347656 C 823.660156 1081.648438 821.488281 1078.535156 819.535156 1077.160156 C 816.859375 1075.351562 813.820312 1074.410156 810.492188 1074.410156 L 807.238281 1074.410156 L 807.238281 1122.746094 L 770.199219 1122.746094 Z M 900.269531 1330.546875 L 831.398438 1330.546875 L 821.488281 1362.964844 L 759.421875 1362.964844 L 833.425781 1166.230469 L 899.980469 1166.230469 L 973.699219 1362.964844 L 910.035156 1362.964844 Z M 887.394531 1287.929688 L 865.90625 1217.167969 L 844.351562 1287.929688 Z M 988.023438 1166.230469 L 1089.15625 1166.230469 C 1111.222656 1166.230469 1127.714844 1171.441406 1138.636719 1181.929688 C 1149.5625 1192.421875 1155.058594 1207.398438 1155.058594 1226.71875 C 1155.058594 1246.613281 1149.054688 1262.175781 1137.117188 1273.390625 C 1125.179688 1284.605469 1106.882812 1290.175781 1082.355469 1290.175781 L 1049.007812 1290.175781 L 1049.007812 1362.964844 L 988.023438 1362.964844 Z M 1049.007812 1250.308594 L 1063.980469 1250.308594 C 1075.773438 1250.308594 1084.09375 1248.28125 1088.867188 1244.15625 C 1093.640625 1240.105469 1096.03125 1234.820312 1096.03125 1228.527344 C 1096.03125 1222.378906 1093.929688 1217.097656 1089.808594 1212.824219 C 1085.683594 1208.554688 1077.871094 1206.386719 1066.441406 1206.386719 L 1049.007812 1206.386719 Z M 1179.65625 1166.230469 L 1240.640625 1166.230469 L 1240.640625 1362.964844 L 1179.65625 1362.964844 Z M 807.238281 1051.761719 L 822.792969 1051.761719 C 824.457031 1051.761719 827.710938 1051.183594 832.558594 1050.101562 C 835.019531 1049.59375 837.042969 1048.363281 838.5625 1046.335938 C 840.15625 1044.3125 840.878906 1041.996094 840.878906 1039.394531 C 840.878906 1035.554688 839.648438 1032.519531 837.1875 1030.492188 C 834.730469 1028.394531 830.171875 1027.382812 823.445312 1027.382812 L 807.238281 1027.382812 Z M 894.628906 1003.285156 L 993.375 1003.285156 L 993.375 1028.753906 L 931.667969 1028.753906 L 931.667969 1047.785156 L 988.890625 1047.785156 L 988.890625 1072.097656 L 931.667969 1072.097656 L 931.667969 1095.609375 L 995.183594 1095.609375 L 995.183594 1122.601562 L 894.628906 1122.601562 Z M 1003.9375 1083.167969 L 1038.953125 1080.996094 C 1039.675781 1086.710938 1041.265625 1090.980469 1043.582031 1093.949219 C 1047.414062 1098.722656 1052.839844 1101.179688 1059.859375 1101.179688 C 1065.066406 1101.179688 1069.1875 1099.953125 1072.011719 1097.492188 C 1074.832031 1095.035156 1076.277344 1092.136719 1076.277344 1088.882812 C 1076.277344 1085.769531 1074.902344 1083.023438 1072.230469 1080.5625 C 1069.550781 1078.101562 1063.257812 1075.859375 1053.347656 1073.613281 C 1037.214844 1069.996094 1025.710938 1065.148438 1018.765625 1059.144531 C 1011.820312 1053.136719 1008.351562 1045.46875 1008.351562 1036.132812 C 1008.351562 1029.984375 1010.160156 1024.195312 1013.703125 1018.769531 C 1017.25 1013.34375 1022.601562 1009.003906 1029.761719 1005.890625 C 1036.925781 1002.777344 1046.691406 1001.261719 1059.132812 1001.261719 C 1074.398438 1001.261719 1085.972656 1004.082031 1094.003906 1009.796875 C 1101.960938 1015.515625 1106.738281 1024.484375 1108.253906 1036.929688 L 1073.605469 1039.03125 C 1072.664062 1033.605469 1070.707031 1029.621094 1067.816406 1027.238281 C 1064.847656 1024.773438 1060.726562 1023.542969 1055.589844 1023.542969 C 1051.320312 1023.542969 1048.066406 1024.484375 1045.894531 1026.296875 C 1043.726562 1028.105469 1042.640625 1030.347656 1042.640625 1032.953125 C 1042.640625 1034.832031 1043.582031 1036.496094 1045.320312 1038.089844 C 1047.050781 1039.605469 1051.105469 1041.125 1057.613281 1042.503906 C 1073.75 1045.972656 1085.320312 1049.523438 1092.265625 1053.066406 C 1099.210938 1056.609375 1104.347656 1061.027344 1107.460938 1066.308594 C 1110.640625 1071.519531 1112.234375 1077.449219 1112.234375 1083.964844 C 1112.234375 1091.628906 1110.136719 1098.648438 1105.867188 1105.089844 C 1101.671875 1111.53125 1095.742188 1116.449219 1088.144531 1119.777344 C 1080.546875 1123.105469 1071 1124.769531 1059.421875 1124.769531 C 1039.167969 1124.769531 1025.0625 1120.863281 1017.25 1113.046875 C 1009.4375 1105.089844 1005.023438 1095.179688 1003.9375 1083.167969 Z M 1117.585938 1003.285156 L 1229.789062 1003.285156 L 1229.789062 1032.808594 L 1192.171875 1032.808594 L 1192.171875 1122.671875 L 1155.277344 1122.671875 L 1155.277344 1032.808594 L 1117.585938 1032.808594 Z M 993.449219 719.941406 C 980.207031 718.929688 966.824219 719.074219 953.589844 720.378906 C 912.859375 724.285156 873.289062 739.117188 840.589844 764.515625 C 802.75 793.816406 774.035156 837.664062 762.964844 895.765625 L 759.492188 913.925781 L 741.40625 917.109375 C 723.683594 920.222656 707.839844 924.492188 693.953125 929.917969 C 680.496094 935.128906 668.484375 941.566406 657.996094 949.164062 C 649.605469 955.242188 642.371094 962.042969 636.222656 969.421875 C 617.195312 992.214844 608.371094 1020.796875 608.589844 1049.738281 C 608.804688 1079.113281 618.351562 1108.777344 636.003906 1133.164062 C 642.589844 1142.207031 650.183594 1150.53125 658.867188 1157.761719 C 667.691406 1165.070312 677.601562 1171.148438 688.742188 1175.707031 C 695.035156 1178.3125 701.761719 1180.484375 708.78125 1182.21875 L 708.78125 1236.414062 C 694.3125 1233.808594 681 1229.902344 668.558594 1224.761719 C 652.136719 1217.964844 637.597656 1209.207031 624.792969 1198.5 C 612.636719 1188.371094 602.003906 1176.867188 592.964844 1164.347656 C 568.871094 1131.066406 555.847656 1090.398438 555.558594 1049.882812 C 555.269531 1008.929688 568.003906 968.195312 595.492188 935.199219 C 604.394531 924.492188 614.882812 914.652344 626.890625 905.96875 C 640.851562 895.839844 656.839844 887.300781 674.925781 880.28125 C 687.367188 875.433594 700.679688 871.382812 714.714844 868.125 C 730.628906 804.886719 764.554688 756.191406 808.179688 722.402344 C 848.980469 690.785156 898.101562 672.332031 948.667969 667.484375 C 975.21875 664.953125 1002.128906 666.109375 1028.464844 671.03125 C 1027.882812 673.417969 1027.378906 675.808594 1027.085938 678.265625 L 1027.015625 678.699219 C 1026.507812 682.824219 1026.292969 686.949219 1026.507812 691.144531 C 1020.9375 693.316406 1015.730469 696.285156 1011.027344 699.902344 L 1010.8125 700.046875 C 1003.792969 705.328125 997.859375 712.128906 993.449219 719.941406 Z M 1376.210938 858.863281 C 1380.261719 862.554688 1384.167969 866.390625 1388.003906 870.515625 C 1395.742188 878.835938 1403.046875 888.242188 1409.921875 898.734375 C 1433.070312 934.332031 1444.9375 981.867188 1444.429688 1028.394531 C 1443.921875 1074.046875 1431.625 1119.488281 1406.449219 1152.914062 C 1390.027344 1174.695312 1368.976562 1192.492188 1343.730469 1206.605469 C 1326.4375 1216.300781 1306.976562 1224.328125 1285.78125 1230.84375 L 1285.78125 1174.765625 C 1297.210938 1170.5 1307.847656 1165.722656 1317.613281 1160.296875 C 1336.640625 1149.660156 1352.191406 1136.707031 1363.839844 1121.152344 C 1381.925781 1097.058594 1390.820312 1062.976562 1391.183594 1028.03125 C 1391.617188 991.347656 1382.648438 954.519531 1365.214844 927.746094 C 1360.222656 920.003906 1354.726562 913.058594 1348.9375 906.835938 C 1346.695312 904.449219 1344.453125 902.207031 1342.136719 900.035156 C 1342.5 896.417969 1342.644531 892.726562 1342.425781 889.039062 C 1347.996094 886.867188 1353.203125 883.898438 1357.90625 880.28125 L 1358.125 880.136719 C 1365.574219 874.421875 1371.796875 867.1875 1376.210938 858.863281 Z M 1192.75 729.640625 C 1226.101562 734.199219 1249.394531 764.949219 1244.835938 798.304688 C 1240.277344 831.660156 1209.535156 855.03125 1176.183594 850.472656 C 1142.832031 845.914062 1119.464844 815.164062 1124.097656 781.808594 C 1128.726562 748.453125 1159.398438 725.082031 1192.75 729.640625 Z M 1192.75 729.640625 "/>
</g>
</svg>
